<svg width="32" height="32" fill="none" xmlns="http://www.w3.org/2000/svg"><path d="M16 32c8.837 0 16-7.163 16-16S24.837 0 16 0 0 7.163 0 16s7.163 16 16 16z" fill="#F0F0F0"/><path d="M3.3 6.3C2 7.9 1.1 9.8.5 11.9h8.3L3.3 6.3zm28.1 5.5c-.6-2-1.5-3.9-2.8-5.6L23 11.8h8.4zM.6 20.2c.6 2 1.5 3.9 2.8 5.6L9 20.2H.6zM25.7 3.3C24.1 2 22.2 1.1 20.1.5v8.3l5.6-5.5zM6.3 28.7c1.6 1.3 3.5 2.2 5.6 2.8v-8.3l-5.6 5.5zM11.8.6c-2 .6-3.9 1.5-5.6 2.8L11.8 9V.6zm8.4 30.8c2-.6 3.9-1.5 5.6-2.8L20.2 23v8.4zm2.9-11.2l5.6 5.6c1.3-1.6 2.2-3.5 2.8-5.6h-8.4z" fill="#0052B4"/><path d="M31.9 13.9H18.1V.1C17.4 0 16.7 0 16 0c-.7 0-1.4 0-2.1.1v13.8H.1C0 14.6 0 15.3 0 16c0 .7 0 1.4.1 2.1h13.8v13.8c.7.1 1.4.1 2.1.1.7 0 1.4 0 2.1-.1V18.1h13.8c.1-.7.1-1.4.1-2.1 0-.7 0-1.4-.1-2.1z" fill="#D80027"/><path d="M20.2 20.2l7.1 7.1c.3-.3.6-.7.9-1l-6.1-6.1h-1.9zm-8.4 0l-7.1 7.1c.3.3.7.6 1 .9l6.1-6.1v-1.9zm0-8.4L4.7 4.7l-1 1 6.1 6.1h2zm8.4 0l7.1-7.1c-.3-.3-.7-.6-1-.9l-6.1 6.1v1.9z" fill="#D80027"/></svg>