<svg width="58" height="58" fill="none" xmlns="http://www.w3.org/2000/svg"><path d="M56.195 29c0 15.041-12.154 27.195-27.195 27.195S1.805 43.92 1.805 29C1.805 14.079 13.959 1.805 29 1.805S56.195 13.958 56.195 29z" stroke="#000" stroke-width="3" stroke-linecap="round"/><path d="M15.764 12.635h6.738v18.651c0 3.008.12 4.813.24 5.776.241 1.444.963 2.527 2.046 3.37 1.083.842 2.527 1.323 4.453 1.323 1.925 0 3.369-.36 4.332-1.203.962-.843 1.564-1.805 1.684-3.008.24-1.204.24-3.13.24-5.776V12.634h6.74v18.05c0 4.09-.241 6.979-.602 8.784a10.338 10.338 0 01-2.046 4.332c-.962 1.203-2.286 2.045-3.85 2.767-1.685.722-3.73 1.083-6.378 1.083-3.129 0-5.535-.36-7.22-1.083-1.685-.722-2.888-1.684-3.85-3.008-.963-1.203-1.565-2.527-1.926-3.85-.481-1.926-.601-4.814-.601-8.664v-18.41z" fill="#000"/></svg>