<svg width="85" height="81" fill="none" xmlns="http://www.w3.org/2000/svg"><g clip-path="url(#clip0)" fill="#00519C"><path d="M0 64.23c0 1.311 1.115 2.374 2.49 2.374 1.376 0 2.49-1.063 2.49-2.373v-1.582c0-6.412 1.658-12.464 4.585-17.796 8.662 10.582 21.872 17.005 36.422 17.005 14.181 0 27.803-6.322 36.524-17.403l1.992-2.531.009-.012c.652-.838.65-1.99 0-2.825l-.009-.011-1.992-2.532c-8.604-10.931-22.148-17.402-36.524-17.402-14.544 0-27.757 6.42-36.422 17.004-2.927-5.332-4.584-11.384-4.584-17.795V16.77c0-1.31-1.115-2.373-2.49-2.373C1.114 14.396 0 15.459 0 16.769v1.582c0 7.91 2.237 15.505 6.426 22.149C2.236 47.143 0 54.738 0 62.649v1.582zm78.527-24.838l.871 1.108-.871 1.107c-5.702 7.245-13.924 12.31-23.02 14.414-3.472-4.472-5.37-9.929-5.37-15.521 0-5.593 1.898-11.05 5.37-15.521 9.096 2.104 17.318 7.169 23.02 14.413zm-32.54-15.504c1.384 0 2.76.073 4.126.207-3.217 4.888-4.956 10.585-4.956 16.405s1.739 11.517 4.956 16.404a42.087 42.087 0 01-4.126.207c-13.905 0-26.214-6.577-33.632-16.611 7.418-10.034 19.727-16.612 33.632-16.612z"/><path d="M55.118 40.5c0 3.926 3.352 7.12 7.471 7.12 4.12 0 7.47-3.194 7.47-7.12 0-3.925-3.35-7.12-7.47-7.12-4.12 0-7.47 3.195-7.47 7.12zm7.471-2.373c1.373 0 2.49 1.065 2.49 2.373 0 1.309-1.117 2.373-2.49 2.373-1.373 0-2.49-1.064-2.49-2.373 0-1.308 1.117-2.373 2.49-2.373z"/></g><defs><clipPath id="clip0"><path fill="#fff" d="M0 0h85v81H0z"/></clipPath></defs></svg>