<svg width="58" height="58" viewBox="0 0 58 58" fill="none" xmlns="http://www.w3.org/2000/svg">
<path d="M56.195 28.9997C56.195 44.0412 44.0415 56.1947 29 56.1947C13.9585 56.1947 1.80498 43.9209 1.80498 28.9997C1.80498 14.0785 13.9585 1.80469 29 1.80469C44.0415 1.80469 56.195 13.9582 56.195 28.9997Z" stroke="black" stroke-width="3" stroke-linecap="round"/>
<path d="M15.7635 12.6348H22.5021V31.2862C22.5021 34.2945 22.6224 36.0995 22.7427 37.0622C22.9834 38.5061 23.7054 39.5891 24.7884 40.4314C25.8714 41.2738 27.3154 41.7551 29.2407 41.7551C31.166 41.7551 32.61 41.3941 33.5726 40.5518C34.5353 39.7095 35.1369 38.7468 35.2573 37.5435C35.4979 36.3402 35.4979 34.4148 35.4979 31.7675V12.6348H42.2365V30.6846C42.2365 34.7758 41.9958 37.6638 41.6349 39.4688C41.2739 41.1534 40.5519 42.5974 39.5892 43.8007C38.6266 45.0041 37.3029 45.8464 35.7386 46.5684C34.0539 47.2904 32.0083 47.6514 29.361 47.6514C26.2324 47.6514 23.8257 47.2904 22.1411 46.5684C20.4564 45.8464 19.2531 44.8837 18.2905 43.5601C17.3278 42.3568 16.7261 41.0331 16.3651 39.7095C15.8838 37.7841 15.7635 34.8962 15.7635 31.0456V12.6348Z" fill="black"/>
</svg>
