<svg width="85" height="81" viewBox="0 0 85 81" fill="none" xmlns="http://www.w3.org/2000/svg">
<g clip-path="url(#clip0)">
<path d="M0 64.2307C0 65.5413 1.11498 66.6038 2.49028 66.6038C3.86558 66.6038 4.98056 65.5413 4.98056 64.2307V62.6486C4.98056 56.2373 6.63759 50.1855 9.56549 44.8532C18.2273 55.4352 31.4371 61.8576 45.9871 61.8576C60.1684 61.8576 73.7896 55.5363 82.5112 44.455L84.5034 41.9237C84.5064 41.9199 84.5088 41.9157 84.5117 41.912C85.1642 41.0736 85.1615 39.9225 84.5117 39.0875C84.5088 39.0837 84.5066 39.0796 84.5034 39.0758L82.5112 36.5445C73.9073 25.6126 60.3633 19.1419 45.9871 19.1419C31.4434 19.1419 18.2297 25.5614 9.56549 36.1463C6.63759 30.8143 4.98056 24.7624 4.98056 18.3511V16.7691C4.98056 15.4585 3.86558 14.396 2.49028 14.396C1.11498 14.396 0 15.4585 0 16.7691V18.3511C0 26.2618 2.23693 33.8564 6.42625 40.5C2.23693 47.1433 0 54.738 0 62.6486L0 64.2307ZM78.5268 39.3924L79.3984 40.4998L78.5268 41.6072C72.8249 48.852 64.6035 53.9163 55.5061 56.0209C52.0352 51.5489 50.1376 46.0924 50.1376 40.4998C50.1376 34.9072 52.0352 29.4509 55.5061 24.9787C64.6035 27.0833 72.8249 32.1476 78.5268 39.3924ZM45.9871 23.8882C47.3711 23.8882 48.7477 23.9606 50.1132 24.0953C46.8959 28.9829 45.157 34.6796 45.157 40.4998C45.157 46.32 46.8959 52.0169 50.1132 56.9043C48.7477 57.0388 47.3711 57.1114 45.9871 57.1114C32.0821 57.1114 19.7735 50.5342 12.3549 40.4998C19.7735 30.4656 32.0821 23.8882 45.9871 23.8882Z" fill="#00519C"/>
<path d="M55.1182 40.5001C55.1182 44.4257 58.4696 47.6194 62.589 47.6194C66.7084 47.6194 70.0598 44.4257 70.0598 40.5001C70.0598 36.5746 66.7084 33.3809 62.589 33.3809C58.4696 33.3809 55.1182 36.5746 55.1182 40.5001ZM62.589 38.127C63.9621 38.127 65.0793 39.1916 65.0793 40.5001C65.0793 41.8087 63.9621 42.8732 62.589 42.8732C61.2159 42.8732 60.0987 41.8087 60.0987 40.5001C60.0987 39.1916 61.2159 38.127 62.589 38.127Z" fill="#00519C"/>
</g>
<defs>
<clipPath id="clip0">
<rect width="85" height="81" fill="white"/>
</clipPath>
</defs>
</svg>
