<svg width="32" height="32" viewBox="0 0 32 32" fill="none" xmlns="http://www.w3.org/2000/svg">
<path d="M16 32C24.8366 32 32 24.8366 32 16C32 7.16344 24.8366 0 16 0C7.16344 0 0 7.16344 0 16C0 24.8366 7.16344 32 16 32Z" fill="#F0F0F0"/>
<path d="M3.3 6.2998C2 7.8998 1.1 9.7998 0.5 11.8998H8.8L3.3 6.2998Z" fill="#0052B4"/>
<path d="M31.4 11.8002C30.8 9.8002 29.9 7.9002 28.6 6.2002L23 11.8002H31.4Z" fill="#0052B4"/>
<path d="M0.599976 20.2002C1.19998 22.2002 2.09998 24.1002 3.39998 25.8002L8.99998 20.2002H0.599976Z" fill="#0052B4"/>
<path d="M25.7 3.3C24.1 2 22.2 1.1 20.1 0.5V8.8L25.7 3.3Z" fill="#0052B4"/>
<path d="M6.29999 28.7002C7.89999 30.0002 9.79999 30.9002 11.9 31.5002V23.2002L6.29999 28.7002Z" fill="#0052B4"/>
<path d="M11.8 0.600098C9.80001 1.2001 7.90001 2.1001 6.20001 3.4001L11.8 9.0001V0.600098Z" fill="#0052B4"/>
<path d="M20.2 31.4C22.2 30.8 24.1 29.9 25.8 28.6L20.2 23V31.4Z" fill="#0052B4"/>
<path d="M23.1 20.2002L28.7 25.8002C30 24.2002 30.9 22.3002 31.5 20.2002H23.1Z" fill="#0052B4"/>
<path d="M31.9 13.9H18.1V0.1C17.4 0 16.7 0 16 0C15.3 0 14.6 0 13.9 0.1V13.9H0.1C0 14.6 0 15.3 0 16C0 16.7 0 17.4 0.1 18.1H13.9V31.9C14.6 32 15.3 32 16 32C16.7 32 17.4 32 18.1 31.9V18.1H31.9C32 17.4 32 16.7 32 16C32 15.3 32 14.6 31.9 13.9Z" fill="#D80027"/>
<path d="M20.2 20.2002L27.3 27.3002C27.6 27.0002 27.9 26.6002 28.2 26.3002L22.1 20.2002H20.2Z" fill="#D80027"/>
<path d="M11.8 20.2002L4.70001 27.3002C5.00001 27.6002 5.40001 27.9002 5.70001 28.2002L11.8 22.1002V20.2002Z" fill="#D80027"/>
<path d="M11.8 11.8002L4.70001 4.7002C4.40001 5.0002 4.00001 5.4002 3.70001 5.7002L9.80001 11.8002H11.8Z" fill="#D80027"/>
<path d="M20.2 11.7998L27.3 4.6998C27 4.3998 26.6 4.0998 26.3 3.7998L20.2 9.8998V11.7998Z" fill="#D80027"/>
</svg>
